<?xml version="1.0" encoding="utf-8"?>
<!-- Generator: Adobe Illustrator 17.0.0, SVG Export Plug-In . SVG Version: 6.00 Build 0)  -->
<!DOCTYPE svg PUBLIC "-//W3C//DTD SVG 1.1//EN" "http://www.w3.org/Graphics/SVG/1.1/DTD/svg11.dtd">
<svg version="1.1" id="Layer_1" xmlns="http://www.w3.org/2000/svg" xmlns:xlink="http://www.w3.org/1999/xlink" x="0px" y="0px"
	 width="193.5px" height="190px" viewBox="27 6.5 193.5 190" style="enable-background:new 27 6.5 193.5 190;" xml:space="preserve"
	>
<style type="text/css">
	.st0{clip-path:url(#SVGID_2_);fill:#A6C250;}
	.st1{clip-path:url(#SVGID_4_);fill:#DFF1F2;}
	.st2{clip-path:url(#SVGID_6_);fill:#A6C250;}
	.st3{clip-path:url(#SVGID_8_);fill:#A6C250;}
	.st4{clip-path:url(#SVGID_10_);fill:#A6C250;}
	.st5{clip-path:url(#SVGID_12_);fill:#A6C250;}
	.st6{clip-path:url(#SVGID_14_);fill:#A6C250;}
</style>
<g>
	<g>
		<defs>
			<circle id="SVGID_1_" cx="125.71" cy="99.93" r="86.16"/>
		</defs>
		<clipPath id="SVGID_2_">
			<use xlink:href="#SVGID_1_"  style="overflow:visible;"/>
		</clipPath>
		<circle class="st0" cx="125.71" cy="99.93" r="86.16"/>
	</g>
	<g>
		<defs>
			<circle id="SVGID_3_" cx="125.71" cy="99.93" r="86.16"/>
		</defs>
		<clipPath id="SVGID_4_">
			<use xlink:href="#SVGID_3_"  style="overflow:visible;"/>
		</clipPath>
		<path class="st1" d="M9.51,148.51c1.88-3.84,4.25-7.45,6.71-11.69c-2.71,0.47-4.84,0.84-6.96,1.2c-0.12-0.23-0.24-0.46-0.36-0.7
			c1.11-0.91,2.28-1.76,3.34-2.74c3.85-3.59,7.78-7.1,11.42-10.89c1.15-1.2,1.49-3.17,2.2-4.78c-1.62,0.32-3.36,0.35-4.83,1.01
			c-2.58,1.16-5.15,1.24-8.13,0.55c0.88-0.83,1.79-1.64,2.65-2.48c4.47-4.42,9.08-8.71,13.35-13.32c2.48-2.68,4.41-5.86,6.59-8.82
			c4.35-5.9,10.21-10.02,16.23-14c3.85-2.55,7.47-5.46,11.17-8.25c0.58-0.43,1-1.07,1.49-1.61c-0.15-0.21-0.3-0.42-0.45-0.64
			c-2.72,1.31-5.44,2.61-8.48,4.07c0.74-1.04,1.25-2.24,2.15-2.93c2.65-2.03,5.31-4.15,8.25-5.71c6.13-3.27,12.4-6.27,18.67-9.25
			c9.89-4.71,20.19-5.48,30.82-2.99c12.48,2.93,24.21,7.62,34.79,14.91c6,4.14,11.85,8.57,14.6,15.73c0.73,1.9,1.52,4.06,1.32,6
			c-0.65,6.18,0.54,11.9,3.07,17.47c4.36,9.61,1.84,18.04-4.51,25.78c-1.47,1.79-2.92,3.62-4.61,5.18c-1.26,1.16-2.84,2.04-4.4,2.81
			c-0.57,0.28-1.74,0.12-2.15-0.31c-0.41-0.42-0.44-1.53-0.2-2.17c0.38-1.02,1.08-1.95,1.73-2.85c2.18-3.05,1.95-5.93-0.87-8.5
			c-0.93-0.85-2.05-1.53-3.15-2.16c-1.1-0.62-2.04-0.68-3.2,0.36c-0.7,0.63-2.25,0.35-3.42,0.42c-1.01,0.07-2.18-0.26-3.01,0.15
			c-2.63,1.31-5.24,2.74-7.67,4.4c-2.84,1.95-4.34,4.74-4.61,8.28c-0.62,8.15,2.71,15.15,6.36,22.02
			c7.4,13.94,2.84,24.04,6.97,39.26 M158.14,119.43c0.17-1.26,0.36-2.29,0.45-3.32c0.19-2.17,1.46-2.59,3.34-2.21
			c2.77,0.57,4.35-0.95,3.5-3.66c-0.56-1.79-1.6-3.46-2.63-5.06c-1.52-2.38-2.45-4.78-1.71-7.68c0.25-0.96,0.13-2.09-0.09-3.08
			c-1.63-7.36-7.01-11.12-13.51-13.61c-2.76-1.06-4.36-0.01-4.5,3.03c-0.12,2.43,0.29,4.91,0.69,7.33c0.32,1.91-0.18,2.82-2.18,3.08
			c-1.97,0.25-3.97,0.61-5.8,1.34c-1.14,0.45-2.38,1.48-2.88,2.57c-1.2,2.61-0.11,4.24,2.72,5.38c0.93,0.38,1.58,1.46,2.36,2.22
			c-0.96,0.37-1.9,0.92-2.89,1.05c-1.37,0.18-2.78,0.05-4.18,0.05c5.05,4.03,11.17,6.5,14.83,12
			C150.01,115.65,153.98,118.09,158.14,119.43z M124.99,80.78c-0.91,8.06-2.23,10.42-6.25,11.35c-3.63,0.84-8.56-1.14-10.69-4.44
			c-3.74-5.77-1.26-9.81,4.19-12.91c-5.49-2.37-8.24-0.79-7.39,4.55c0.71,4.48,2.71,8.77,4.3,13.08c0.17,0.46,1.36,0.74,2.09,0.78
			c2.21,0.14,4.43,0.06,6.64,0.19c3.26,0.19,6.52,0.76,9.76,0.63c2.44-0.1,4.85-1.04,7.35-1.63
			C133.33,88.23,128.51,82.73,124.99,80.78z M96.71,69.42c-0.14-0.25-0.29-0.49-0.43-0.74c-6.83,0.64-12.96,3.24-18.76,6.79
			c5.84-1.27,11.55-2.95,17.22-4.71C95.47,70.54,96.06,69.88,96.71,69.42z M131.51,79.39c-2.57-5.47-6.03-7.64-11.59-7.76
			C123.89,74.3,127.7,76.84,131.51,79.39z M90.33,74.37c0.02,0.21,0.04,0.42,0.05,0.63c0.75-0.16,1.48-0.39,2.24-0.46
			c2.75-0.28,5.5-0.71,8.24-0.71c2.55,0,3.04-0.38,2.57-3.35C99.05,71.79,94.69,73.08,90.33,74.37z"/>
	</g>
	<g>
		<defs>
			<circle id="SVGID_5_" cx="125.71" cy="99.93" r="86.16"/>
		</defs>
		<clipPath id="SVGID_6_">
			<use xlink:href="#SVGID_5_"  style="overflow:visible;"/>
		</clipPath>
		<path class="st2" d="M158.14,119.43c-4.16-1.35-8.13-3.78-12.48-0.57c-3.65-5.5-9.78-7.96-14.83-12c1.39,0,2.8,0.14,4.18-0.05
			c0.99-0.13,1.93-0.69,2.89-1.05c-0.78-0.76-1.43-1.84-2.36-2.22c-2.83-1.14-3.92-2.77-2.72-5.38c0.5-1.09,1.74-2.11,2.88-2.57
			c1.83-0.72,3.84-1.08,5.8-1.34c2.01-0.26,2.5-1.17,2.18-3.08c-0.4-2.42-0.81-4.9-0.69-7.33c0.15-3.04,1.75-4.09,4.5-3.03
			c6.5,2.5,11.88,6.25,13.51,13.61c0.22,0.99,0.34,2.12,0.09,3.08c-0.75,2.9,0.18,5.3,1.71,7.68c1.02,1.6,2.07,3.27,2.63,5.06
			c0.85,2.7-0.73,4.23-3.5,3.66c-1.87-0.39-3.15,0.04-3.34,2.21C158.5,117.15,158.32,118.17,158.14,119.43z"/>
	</g>
	<g>
		<defs>
			<circle id="SVGID_7_" cx="125.71" cy="99.93" r="86.16"/>
		</defs>
		<clipPath id="SVGID_8_">
			<use xlink:href="#SVGID_7_"  style="overflow:visible;"/>
		</clipPath>
		<path class="st3" d="M124.99,80.78c3.53,1.95,8.34,7.45,9.99,11.61c-2.5,0.59-4.91,1.53-7.35,1.63c-3.24,0.13-6.5-0.44-9.76-0.63
			c-2.21-0.13-4.43-0.05-6.64-0.19c-0.73-0.05-1.92-0.32-2.09-0.78c-1.58-4.32-3.58-8.6-4.3-13.08c-0.85-5.34,1.9-6.92,7.39-4.55
			c-5.45,3.1-7.93,7.14-4.19,12.91c2.14,3.29,7.06,5.28,10.69,4.44C122.76,91.2,124.08,88.84,124.99,80.78z"/>
	</g>
	<g>
		<defs>
			<circle id="SVGID_9_" cx="125.71" cy="99.93" r="86.16"/>
		</defs>
		<clipPath id="SVGID_10_">
			<use xlink:href="#SVGID_9_"  style="overflow:visible;"/>
		</clipPath>
		<path class="st4" d="M96.71,69.42c-0.65,0.46-1.24,1.12-1.97,1.35c-5.68,1.76-11.38,3.44-17.22,4.71
			c5.8-3.56,11.93-6.16,18.76-6.79C96.43,68.93,96.57,69.17,96.71,69.42z"/>
	</g>
	<g>
		<defs>
			<circle id="SVGID_11_" cx="125.71" cy="99.93" r="86.16"/>
		</defs>
		<clipPath id="SVGID_12_">
			<use xlink:href="#SVGID_11_"  style="overflow:visible;"/>
		</clipPath>
		<path class="st5" d="M131.51,79.39c-3.81-2.55-7.61-5.1-11.59-7.76C125.47,71.75,128.93,73.92,131.51,79.39z"/>
	</g>
	<g>
		<defs>
			<circle id="SVGID_13_" cx="125.71" cy="99.93" r="86.16"/>
		</defs>
		<clipPath id="SVGID_14_">
			<use xlink:href="#SVGID_13_"  style="overflow:visible;"/>
		</clipPath>
		<path class="st6" d="M90.33,74.37c4.36-1.29,8.72-2.58,13.1-3.88c0.47,2.97-0.02,3.35-2.57,3.35c-2.75,0-5.5,0.43-8.24,0.71
			c-0.75,0.08-1.49,0.31-2.24,0.46C90.37,74.79,90.35,74.58,90.33,74.37z"/>
	</g>
</g>
</svg>
