<?xml version="1.0" encoding="utf-8"?>
<!-- Generator: Adobe Illustrator 17.0.0, SVG Export Plug-In . SVG Version: 6.00 Build 0)  -->
<!DOCTYPE svg PUBLIC "-//W3C//DTD SVG 1.1//EN" "http://www.w3.org/Graphics/SVG/1.1/DTD/svg11.dtd">
<svg version="1.1" id="Layer_1" xmlns="http://www.w3.org/2000/svg" xmlns:xlink="http://www.w3.org/1999/xlink" x="0px" y="0px"
	 width="224px" height="202px" viewBox="0 0 224 202" enable-background="new 0 0 224 202" xml:space="preserve">
<g>
	<defs>
		<circle id="SVGID_1_" cx="125.71" cy="99.928" r="86.162"/>
	</defs>
	<clipPath id="SVGID_2_">
		<use xlink:href="#SVGID_1_"  overflow="visible"/>
	</clipPath>
	<circle clip-path="url(#SVGID_2_)" fill="#A6C250" cx="125.71" cy="99.928" r="86.162"/>
	<path clip-path="url(#SVGID_2_)" fill="#DFF1F2" d="M9.514,148.515c1.884-3.844,4.252-7.45,6.713-11.69
		c-2.711,0.469-4.836,0.836-6.96,1.203c-0.121-0.232-0.243-0.465-0.364-0.697c1.115-0.911,2.284-1.764,3.336-2.743
		c3.85-3.586,7.777-7.102,11.417-10.893c1.148-1.196,1.488-3.168,2.197-4.785c-1.618,0.317-3.362,0.353-4.826,1.012
		c-2.576,1.158-5.149,1.236-8.128,0.548c0.883-0.827,1.786-1.635,2.646-2.484c4.474-4.416,9.082-8.71,13.35-13.318
		c2.479-2.676,4.408-5.862,6.587-8.817c4.35-5.899,10.208-10.018,16.231-14.003c3.855-2.551,7.475-5.46,11.172-8.246
		c0.575-0.434,1.001-1.066,1.495-1.607c-0.149-0.212-0.298-0.424-0.447-0.636c-2.72,1.306-5.441,2.612-8.477,4.07
		c0.74-1.041,1.247-2.24,2.146-2.928c2.655-2.032,5.313-4.147,8.246-5.71c6.126-3.266,12.396-6.27,18.668-9.254
		c9.894-4.707,20.188-5.478,30.818-2.985c12.483,2.929,24.214,7.617,34.792,14.913c6.001,4.139,11.845,8.567,14.595,15.729
		c0.731,1.904,1.525,4.059,1.32,5.997c-0.652,6.175,0.545,11.902,3.072,17.468c4.362,9.607,1.837,18.043-4.51,25.779
		c-1.467,1.788-2.922,3.618-4.613,5.179c-1.263,1.165-2.841,2.044-4.397,2.808c-0.567,0.279-1.743,0.116-2.155-0.313
		c-0.407-0.423-0.443-1.528-0.204-2.171c0.381-1.024,1.077-1.948,1.725-2.853c2.182-3.051,1.947-5.934-0.87-8.496
		c-0.935-0.85-2.049-1.529-3.155-2.156c-1.097-0.622-2.036-0.685-3.204,0.365c-0.702,0.632-2.252,0.346-3.423,0.423
		c-1.009,0.067-2.184-0.259-3.005,0.15c-2.635,1.314-5.244,2.737-7.67,4.401c-2.837,1.946-4.338,4.745-4.606,8.278
		c-0.619,8.154,2.705,15.146,6.356,22.021c7.405,13.945,2.844,24.036,6.972,39.26 M158.142,119.434
		c0.174-1.263,0.357-2.285,0.448-3.316c0.19-2.167,1.465-2.591,3.34-2.206c2.769,0.569,4.353-0.953,3.502-3.656
		c-0.563-1.789-1.605-3.464-2.63-5.063c-1.524-2.379-2.454-4.778-1.709-7.675c0.247-0.959,0.129-2.087-0.09-3.078
		c-1.63-7.365-7.012-11.116-13.512-13.615c-2.759-1.061-4.357-0.012-4.504,3.027c-0.118,2.43,0.288,4.912,0.692,7.333
		c0.32,1.914-0.176,2.82-2.18,3.08c-1.966,0.255-3.974,0.615-5.803,1.338c-1.14,0.451-2.379,1.478-2.877,2.566
		c-1.196,2.611-0.111,4.244,2.723,5.384c0.933,0.375,1.581,1.457,2.359,2.216c-0.961,0.367-1.898,0.922-2.89,1.054
		c-1.369,0.182-2.781,0.046-4.175,0.046c5.048,4.031,11.174,6.496,14.828,11.995C150.013,115.65,153.977,118.088,158.142,119.434z
		 M15.16,147.5 M124.99,80.784c-0.914,8.057-2.233,10.417-6.254,11.349c-3.632,0.842-8.56-1.144-10.695-4.437
		c-3.743-5.774-1.262-9.813,4.189-12.908c-5.49-2.371-8.238-0.791-7.391,4.549c0.711,4.481,2.712,8.768,4.296,13.085
		c0.171,0.465,1.355,0.735,2.089,0.782c2.209,0.141,4.431,0.061,6.641,0.187c3.258,0.186,6.522,0.76,9.761,0.63
		c2.443-0.099,4.851-1.043,7.352-1.629C133.327,88.233,128.515,82.733,124.99,80.784z M96.715,69.42
		c-0.144-0.246-0.287-0.493-0.431-0.739c-6.832,0.635-12.964,3.235-18.762,6.794c5.843-1.266,11.546-2.947,17.222-4.71
		C95.471,70.539,96.062,69.879,96.715,69.42z M131.507,79.391c-2.575-5.474-6.034-7.642-11.594-7.759
		C123.894,74.296,127.7,76.843,131.507,79.391z M90.334,74.369c0.018,0.211,0.036,0.423,0.054,0.634
		c0.745-0.158,1.484-0.386,2.237-0.463c2.745-0.282,5.496-0.708,8.244-0.707c2.546,0.001,3.039-0.38,2.566-3.347
		C99.054,71.785,94.694,73.077,90.334,74.369z"/>
	<path clip-path="url(#SVGID_2_)" fill="#A6C250" d="M158.142,119.434c-4.165-1.345-8.129-3.783-12.477-0.57
		c-3.653-5.499-9.78-7.964-14.828-11.995c1.394,0,2.805,0.137,4.175-0.046c0.993-0.132,1.929-0.687,2.89-1.054
		c-0.778-0.759-1.427-1.841-2.359-2.216c-2.834-1.14-3.919-2.772-2.723-5.384c0.498-1.088,1.736-2.115,2.877-2.566
		c1.828-0.723,3.837-1.084,5.803-1.338c2.005-0.26,2.5-1.166,2.18-3.08c-0.404-2.42-0.81-4.903-0.692-7.333
		c0.148-3.04,1.746-4.088,4.504-3.027c6.5,2.499,11.883,6.25,13.512,13.615c0.219,0.991,0.337,2.119,0.09,3.078
		c-0.746,2.897,0.184,5.296,1.709,7.675c1.025,1.599,2.067,3.274,2.63,5.063c0.85,2.704-0.733,4.226-3.502,3.656
		c-1.874-0.385-3.15,0.039-3.34,2.206C158.499,117.148,158.315,118.17,158.142,119.434z"/>
	<path clip-path="url(#SVGID_2_)" fill="#A6C250" d="M124.99,80.784c3.525,1.949,8.338,7.448,9.989,11.607
		c-2.5,0.586-4.909,1.531-7.352,1.629c-3.239,0.131-6.503-0.443-9.761-0.63c-2.21-0.126-4.433-0.047-6.641-0.187
		c-0.734-0.047-1.919-0.317-2.089-0.782c-1.584-4.317-3.585-8.604-4.296-13.085c-0.847-5.34,1.901-6.92,7.391-4.549
		c-5.451,3.095-7.932,7.135-4.189,12.908c2.135,3.293,7.063,5.279,10.695,4.437C122.757,91.201,124.076,88.842,124.99,80.784z"/>
	<path clip-path="url(#SVGID_2_)" fill="#A6C250" d="M96.715,69.42c-0.653,0.459-1.244,1.119-1.97,1.345
		c-5.677,1.764-11.379,3.444-17.222,4.71c5.798-3.559,11.929-6.159,18.762-6.794C96.428,68.928,96.572,69.174,96.715,69.42z"/>
	<path clip-path="url(#SVGID_2_)" fill="#A6C250" d="M131.507,79.391c-3.807-2.547-7.613-5.095-11.594-7.759
		C125.473,71.749,128.931,73.916,131.507,79.391z"/>
	<path clip-path="url(#SVGID_2_)" fill="#A6C250" d="M90.334,74.369c4.36-1.292,8.72-2.584,13.101-3.883
		c0.474,2.967-0.019,3.348-2.566,3.347c-2.748-0.001-5.499,0.425-8.244,0.707c-0.754,0.077-1.492,0.305-2.237,0.463
		C90.37,74.792,90.352,74.581,90.334,74.369z"/>
</g>
</svg>
